<?xml version="1.0" standalone="no"?>
<!DOCTYPE svg PUBLIC "-//W3C//DTD SVG 20010904//EN"
 "http://www.w3.org/TR/2001/REC-SVG-20010904/DTD/svg10.dtd">
<svg version="1.0" xmlns="http://www.w3.org/2000/svg"
 width="1280.000000pt" height="1280.000000pt" viewBox="0 0 1280.000000 1280.000000"
 preserveAspectRatio="xMidYMid meet">

<g transform="translate(0.000000,1280.000000) scale(0.100000,-0.100000)"
fill="#000000" stroke="none">
<path d="M5965 9420 c-178 -27 -462 -122 -517 -172 -39 -36 -115 -95 -131
-101 -10 -4 -15 -12 -11 -18 3 -6 -17 -36 -47 -67 -58 -61 -79 -92 -79 -118 0
-26 71 -85 135 -111 33 -14 85 -36 116 -50 40 -18 65 -24 84 -19 26 7 27 6 20
-21 -15 -62 -79 -122 -189 -177 -41 -21 -102 -67 -167 -127 -58 -54 -118 -100
-140 -109 -23 -8 -39 -21 -39 -30 0 -18 -40 -60 -57 -60 -6 0 -14 6 -17 13 -3
8 -8 7 -16 -5 -6 -10 -16 -18 -23 -18 -7 0 -6 4 3 10 8 5 12 12 8 15 -3 4 -19
-1 -33 -11 -19 -13 -23 -19 -14 -23 33 -10 37 -38 7 -50 -47 -18 -132 -83
-166 -126 -19 -25 -38 -43 -42 -40 -4 2 -18 -7 -30 -20 -13 -14 -31 -25 -40
-25 -10 0 -35 -12 -56 -26 -23 -16 -40 -22 -42 -15 -2 6 -17 11 -33 11 -44 0
-35 33 11 38 27 3 70 39 70 59 0 7 -9 13 -20 13 -18 0 -19 3 -10 20 10 19 9
20 -14 14 -20 -5 -26 -2 -26 10 0 10 -5 13 -17 9 -11 -4 -14 -3 -9 5 4 7 15
12 26 12 19 0 34 25 24 41 -9 15 -24 10 -56 -16 -33 -28 -58 -34 -38 -10 10
13 9 15 -8 15 -30 0 -73 -20 -106 -49 -21 -20 -30 -23 -34 -12 -2 7 -13 22
-24 33 -22 22 -21 25 42 99 16 20 30 42 30 48 0 19 -49 12 -60 -9 -12 -23 -70
-29 -70 -7 0 14 67 87 80 87 5 0 7 -7 4 -15 -9 -22 7 -18 45 9 47 35 66 65 52
79 -8 8 -16 9 -29 1 -23 -15 -79 -6 -87 14 -3 8 3 25 14 36 24 27 35 62 21 71
-7 4 -3 17 11 37 18 25 19 32 8 39 -21 13 -28 11 -54 -15 -14 -14 -22 -31 -19
-40 3 -8 0 -25 -7 -38 -7 -13 -12 -27 -11 -31 7 -25 -59 -106 -87 -107 -8 0
-25 -10 -38 -22 -13 -12 -25 -19 -27 -17 -11 10 31 74 57 88 29 15 95 69 70
56 -7 -3 -13 -1 -13 4 0 14 -33 14 -65 -1 -46 -21 -40 2 15 57 53 54 54 55 27
55 -20 0 -41 -13 -71 -45 -25 -25 -51 -45 -59 -45 -25 0 -7 49 34 92 32 34 43
40 67 35 37 -8 64 11 86 60 9 21 31 48 49 61 57 40 64 47 71 70 11 34 -12 27
-53 -15 -46 -49 -100 -93 -112 -93 -5 0 -9 11 -9 25 0 18 -5 25 -20 25 -16 0
-20 7 -20 35 0 40 -6 42 -76 19 -99 -33 -168 -72 -192 -109 -12 -19 -29 -35
-37 -35 -21 0 -33 32 -15 38 8 3 38 27 66 54 28 26 56 48 63 48 6 0 14 8 18
18 3 9 15 27 26 39 26 30 6 38 -46 19 -27 -9 -52 -31 -83 -69 -29 -38 -49 -55
-59 -51 -14 6 -17 12 -14 30 1 7 -22 24 -32 24 -3 0 -16 -9 -29 -20 -16 -14
-27 -17 -35 -10 -16 13 -74 1 -104 -21 -17 -14 -28 -16 -41 -9 -10 6 -28 10
-39 10 -24 0 -26 17 -6 43 7 11 11 25 8 33 -3 8 5 26 18 40 32 34 14 52 -38
36 -28 -9 -39 -9 -44 0 -9 14 7 48 30 65 14 10 10 12 -20 13 -20 0 -42 7 -49
15 -10 12 -22 9 -86 -23 -70 -34 -75 -39 -106 -102 -26 -53 -31 -71 -24 -92
11 -31 0 -78 -18 -78 -7 0 -29 -10 -47 -23 -36 -25 -59 -25 -59 -1 0 26 -18
14 -57 -38 -21 -28 -50 -67 -65 -87 -19 -25 -27 -48 -28 -78 0 -36 -5 -45 -41
-74 -27 -22 -50 -52 -66 -89 -14 -30 -33 -71 -44 -91 -27 -51 -25 -71 5 -63
24 6 25 5 24 -61 0 -58 -3 -68 -23 -81 -13 -8 -31 -14 -41 -12 -11 2 -23 -6
-30 -20 -6 -12 -21 -33 -33 -46 -30 -32 -42 -82 -36 -146 9 -84 14 -100 31
-100 8 0 22 -16 30 -35 15 -37 34 -39 34 -4 0 29 18 59 35 59 9 0 15 -10 15
-25 0 -30 28 -77 41 -69 19 12 33 -45 22 -92 -11 -45 -10 -46 19 -56 21 -7 28
-15 24 -27 -16 -48 -42 -118 -49 -129 -13 -20 -24 -5 -19 26 2 16 0 32 -6 36
-6 3 -6 22 1 51 12 51 6 65 -18 41 -19 -19 -27 -20 -42 -5 -8 8 -14 5 -23 -12
-7 -13 -26 -38 -42 -56 -19 -20 -31 -43 -32 -63 -1 -18 -9 -36 -19 -41 -23
-13 -66 -106 -73 -161 -6 -40 -4 -46 15 -51 18 -4 21 -13 21 -55 0 -58 12 -73
29 -35 9 19 9 34 1 58 -9 28 -8 39 10 71 11 22 20 45 20 54 0 9 6 6 17 -9 15
-23 15 -28 -5 -90 -18 -54 -20 -73 -12 -106 5 -22 10 -56 10 -75 1 -34 1 -35
14 -11 8 15 16 20 20 12 4 -6 17 -11 30 -11 18 0 24 -9 36 -57 20 -78 36 -78
44 -1 3 35 20 103 36 152 36 107 36 110 8 128 l-22 15 29 66 c24 59 29 65 40
50 7 -10 27 -18 45 -19 39 -2 46 13 58 128 13 115 6 122 -54 58 -21 -22 -41
-40 -44 -40 -3 0 -5 42 -5 93 0 121 -38 246 -58 195 -4 -9 -6 -7 -6 3 -1 9 12
30 28 46 15 17 31 36 34 44 5 11 10 9 23 -8 9 -13 23 -23 31 -23 12 0 13 -8 8
-40 -8 -45 12 -110 33 -110 8 0 13 -10 11 -27 -4 -57 -1 -63 30 -57 41 8 44
-6 16 -69 -29 -63 -30 -153 -1 -169 20 -11 36 -2 36 21 0 9 7 26 15 37 8 10
15 37 15 59 1 48 22 151 33 162 5 4 12 1 17 -7 5 -9 2 -27 -11 -51 -15 -30
-18 -52 -14 -116 5 -84 18 -170 29 -181 4 -3 21 -1 37 5 23 9 35 9 49 1 14 -9
22 -9 34 1 23 19 21 -5 -6 -110 -25 -99 -21 -125 16 -108 28 13 36 35 36 103
0 32 7 60 22 84 12 19 27 51 34 71 l13 36 1 -34 c0 -43 13 -31 28 24 5 22 16
56 23 75 6 19 14 42 17 50 3 8 9 -3 14 -25 4 -22 16 -46 25 -52 13 -10 14 -17
5 -38 -6 -14 -20 -25 -30 -25 -13 0 -22 -12 -31 -40 -10 -33 -9 -45 4 -70 18
-36 26 -33 49 15 10 20 21 33 26 30 11 -7 50 30 50 48 0 7 6 22 14 32 14 19
15 19 35 -5 11 -14 20 -34 21 -45 0 -11 9 -26 20 -33 19 -11 22 -10 34 20 17
41 30 138 18 138 -4 0 -13 -5 -20 -12 -18 -18 -15 14 5 57 23 48 38 39 38 -23
0 -27 3 -54 7 -57 15 -15 37 6 48 45 14 51 44 103 54 92 4 -4 18 -7 29 -7 18
0 22 -5 20 -30 -1 -16 3 -56 9 -87 l11 -57 19 22 c18 21 19 21 14 2 -16 -68
-16 -82 -2 -94 19 -16 36 -6 36 19 0 11 9 24 20 30 17 9 20 8 20 -10 0 -25 15
-26 29 -2 10 16 10 16 11 0 0 -22 26 -24 37 -4 4 8 17 14 28 13 11 -1 21 5 23
16 3 13 -1 17 -14 15 -14 -2 -18 5 -21 35 -3 22 0 37 6 37 6 0 11 -7 11 -15 0
-8 8 -15 18 -15 15 0 17 -11 16 -97 -1 -130 -31 -217 -61 -177 -6 9 -16 13
-22 9 -12 -7 -13 -3 -15 74 0 30 -6 56 -12 58 -6 2 -21 -13 -33 -33 -15 -26
-25 -34 -33 -26 -7 7 -4 16 11 31 12 12 21 28 21 36 0 20 -28 8 -35 -16 -4
-10 -10 -19 -15 -19 -18 0 -30 -40 -35 -117 -3 -43 -7 -87 -8 -97 -4 -36 21
-27 28 11 l8 38 6 -30 c8 -37 22 -37 40 1 17 35 33 47 43 31 5 -9 10 -9 20 1
30 30 62 6 51 -40 -22 -98 -24 -101 -38 -82 -9 13 -10 26 -4 42 12 32 11 42
-4 42 -8 0 -19 -11 -25 -24 -6 -14 -23 -27 -40 -31 -24 -5 -34 -16 -51 -55
-12 -27 -21 -57 -21 -67 0 -14 -2 -15 -9 -4 -14 22 -33 -22 -23 -51 5 -13 7
-50 4 -83 -2 -33 -3 -77 -3 -98 1 -49 -17 -39 -25 14 -6 37 -28 50 -30 18 -3
-42 -3 -42 -20 -28 -14 11 -18 10 -30 -6 -12 -16 -12 -22 1 -41 17 -26 20 -60
6 -69 -5 -3 -12 3 -16 14 -7 22 -35 37 -34 18 0 -7 10 -39 22 -72 17 -46 27
-61 44 -63 17 -3 24 3 29 22 3 14 3 30 -1 36 -12 19 6 120 21 120 10 0 14 -15
14 -59 0 -33 5 -63 10 -66 17 -11 11 -83 -10 -117 -16 -26 -18 -44 -14 -93 4
-44 3 -56 -5 -45 -6 8 -11 42 -11 75 0 42 -3 56 -10 45 -5 -8 -10 -40 -10 -70
0 -57 -7 -58 -34 -6 l-15 29 -12 -27 c-10 -22 -14 -24 -21 -11 -13 22 -48 19
-48 -4 0 -31 -19 -35 -30 -6 -13 35 -44 30 -48 -8 -2 -15 -7 -25 -12 -22 -5 3
-7 36 -4 73 l6 67 -25 -30 -24 -29 -5 64 c-3 43 -1 69 8 77 7 8 10 29 7 58 -5
44 -5 45 31 60 20 8 36 19 36 23 0 5 -13 21 -29 36 l-30 29 -6 -26 c-4 -14
-18 -35 -31 -48 l-24 -22 0 21 c0 29 -28 29 -39 0 -6 -16 -4 -28 5 -38 35 -41
48 -125 26 -165 -4 -5 -7 -16 -7 -25 -1 -8 -5 -28 -8 -45 -7 -32 10 -79 28
-76 6 1 11 9 11 19 4 40 7 33 14 -28 8 -76 48 -173 69 -165 16 6 41 -12 41
-31 0 -8 -9 -14 -20 -14 -11 0 -20 -4 -20 -10 0 -14 -43 -13 -58 2 -9 9 -12 7
-12 -10 0 -12 9 -26 20 -32 13 -7 20 -21 20 -40 0 -16 5 -32 10 -35 6 -4 8
-21 4 -40 -4 -24 1 -47 21 -89 25 -53 54 -79 40 -36 -4 12 -2 20 5 20 7 0 10
8 7 20 -7 25 -3 25 22 -2 20 -21 21 -21 42 -2 20 18 21 18 34 1 18 -24 28 -5
20 34 -6 28 -5 30 17 27 20 -3 23 1 20 24 -2 15 2 36 8 47 l10 21 21 -21 c28
-28 42 -15 34 35 -6 39 -5 40 11 21 9 -11 22 -33 30 -50 7 -16 14 -23 14 -15
1 20 30 -17 30 -39 0 -11 -3 -11 -13 4 -9 12 -16 14 -21 7 -6 -10 17 -60 47
-104 9 -13 7 -21 -7 -37 -11 -12 -14 -21 -8 -21 17 0 71 -89 107 -177 18 -43
48 -58 79 -41 11 6 16 5 16 -3 0 -6 7 -9 15 -5 10 3 17 -3 21 -19 7 -27 24
-34 24 -11 0 19 14 28 34 20 23 -9 19 -50 -6 -69 -15 -10 -19 -18 -12 -23 7
-4 13 -16 15 -27 3 -12 15 -22 36 -26 18 -3 40 -12 49 -19 8 -8 30 -15 47 -17
18 -2 38 -5 45 -8 15 -5 16 -41 2 -50 -6 -4 -8 -15 -5 -26 4 -11 2 -19 -6 -19
-9 0 -8 -4 1 -15 10 -12 10 -15 -4 -15 -19 0 -21 -11 -4 -28 10 -10 10 -15 -1
-22 -12 -7 -12 -11 -2 -24 11 -13 11 -17 -2 -22 -12 -4 -15 -14 -10 -37 3 -18
9 -35 12 -39 9 -10 81 10 81 22 0 22 19 8 29 -21 14 -40 14 -39 -4 -39 -19 0
-19 -15 1 -44 9 -15 11 -26 5 -30 -21 -13 2 -35 52 -51 29 -9 63 -22 77 -30
14 -7 39 -15 57 -18 37 -6 80 -35 86 -59 3 -11 15 -18 29 -18 31 -1 52 -19 66
-57 6 -18 22 -48 36 -66 15 -19 26 -39 26 -45 0 -22 40 -52 68 -52 15 0 34 -6
41 -12 11 -10 14 -10 18 0 7 19 29 14 39 -9 12 -27 74 -38 74 -13 0 32 34 54
78 50 43 -5 51 1 31 21 -9 9 -5 14 15 19 20 5 33 1 49 -13 12 -11 37 -23 56
-27 19 -3 40 -11 48 -17 11 -10 9 -14 -11 -25 -14 -7 -35 -10 -47 -7 -23 6
-23 7 -2 -44 7 -17 -29 -17 -45 -1 -9 9 -8 16 4 29 14 15 12 17 -14 21 -23 3
-36 -3 -61 -29 -29 -31 -30 -33 -12 -43 11 -5 33 -10 50 -10 21 0 31 -5 31
-15 0 -9 9 -19 21 -23 11 -4 26 -19 32 -32 13 -26 44 -35 40 -12 -5 21 22 13
47 -13 14 -15 34 -25 49 -24 l26 0 -22 16 c-13 8 -23 19 -23 24 0 16 27 9 45
-11 10 -11 14 -20 10 -20 -5 0 0 -7 11 -15 10 -8 41 -15 67 -15 52 0 107 -23
107 -44 0 -7 10 -18 23 -24 22 -10 21 -11 -6 -11 -24 -1 -26 -3 -17 -21 15
-28 57 -36 94 -17 34 17 143 20 153 4 12 -20 21 -77 11 -77 -5 0 -6 -4 -3 -10
3 -5 14 -10 24 -10 9 0 35 -17 57 -37 51 -47 88 -68 109 -59 15 5 14 9 -4 35
-12 16 -21 33 -21 39 0 5 -10 16 -22 24 -19 13 -20 18 -10 30 6 8 9 17 6 21
-9 9 34 19 55 12 20 -6 26 -51 9 -61 -12 -7 41 -64 59 -64 18 0 16 19 -2 26
-25 10 -17 33 13 40 15 3 35 8 45 11 25 7 21 -16 -5 -26 -23 -9 -23 -9 5 -20
28 -11 57 -34 57 -45 0 -3 -17 -6 -37 -6 -40 0 -72 -14 -61 -26 10 -9 -17 -34
-36 -34 -25 0 -18 -19 14 -39 39 -23 30 -31 -39 -32 -71 -2 -117 -12 -114 -26
1 -6 -17 -19 -40 -29 l-42 -19 48 -3 c26 -2 47 -8 47 -13 0 -7 -18 -8 -50 -4
-32 4 -50 3 -50 -3 0 -15 36 -25 60 -17 11 4 20 2 20 -4 0 -7 -23 -11 -56 -11
-49 0 -55 -2 -44 -15 16 -19 49 -19 86 0 43 21 169 31 189 15 18 -15 45 -6 45
14 0 8 6 16 13 19 9 3 9 7 0 17 -21 23 -5 40 28 28 16 -5 27 -13 24 -18 -3 -4
9 -13 26 -21 46 -18 114 5 114 40 0 33 27 48 63 35 31 -12 75 1 69 20 -4 11
-26 11 -87 1 -31 -6 -33 -5 -18 8 23 18 13 27 -31 27 -34 -1 -35 -2 -17 -15
18 -14 16 -15 -28 -15 -29 0 -53 -6 -62 -15 -16 -16 -51 -20 -78 -9 -25 10 -8
24 30 24 37 0 46 15 14 25 -40 13 -12 45 38 45 29 0 32 -3 27 -20 -8 -24 13
-28 22 -4 5 14 18 16 95 10 86 -7 89 -6 83 13 -4 14 0 23 15 31 27 14 23 64
-6 66 -46 2 -47 3 -34 19 7 8 18 15 25 15 8 0 16 8 18 18 4 16 5 16 6 0 0 -10
7 -18 14 -18 7 0 20 -8 29 -17 9 -10 24 -24 33 -32 9 -7 14 -19 11 -26 -3 -9
6 -16 25 -20 37 -8 38 -33 2 -41 -57 -12 -60 -15 -33 -32 13 -10 33 -25 42
-34 10 -10 29 -18 43 -18 26 0 34 -15 13 -23 -9 -3 -7 -7 5 -12 12 -5 26 0 42
15 18 17 31 21 54 17 33 -7 50 8 32 26 -8 8 -20 6 -46 -6 -20 -9 -42 -17 -50
-17 -26 0 -16 18 18 31 60 23 77 27 82 18 8 -11 66 0 86 17 25 22 52 18 44 -6
-8 -25 10 -26 27 -1 7 10 24 22 38 26 28 8 60 33 60 47 0 4 -10 8 -21 8 -18 0
-20 2 -8 16 11 14 9 15 -24 10 -93 -15 -113 -16 -89 -6 13 5 30 17 38 25 9 8
28 15 44 15 16 0 32 5 36 12 5 8 -9 9 -56 5 -35 -4 -66 -11 -69 -15 -11 -15
-60 -42 -77 -42 -9 0 -18 -9 -21 -20 -3 -13 -14 -20 -29 -20 -28 0 -29 3 -8
35 9 14 25 25 36 25 28 0 110 39 103 50 -3 5 -13 6 -22 3 -12 -5 -15 -2 -11 9
4 9 1 21 -5 27 -8 8 -7 11 6 11 20 0 21 12 5 57 -12 32 -31 43 -43 23 -10 -17
-45 -12 -39 5 5 11 -1 15 -25 15 -17 0 -31 5 -31 10 0 6 38 10 95 10 80 0 93
2 89 15 -4 8 -12 15 -20 15 -8 0 -14 4 -14 10 0 10 82 6 113 -5 11 -5 17 -2
17 8 0 24 121 39 135 17 3 -5 18 -10 33 -10 15 0 33 -4 41 -9 11 -7 9 -10 -8
-16 -11 -3 -21 -11 -21 -16 0 -15 47 -10 61 7 8 10 22 14 40 10 19 -3 35 1 51
14 27 22 16 40 -13 21 -12 -7 -24 -9 -27 -5 -4 4 -1 9 6 11 6 3 12 11 12 20 0
10 -6 12 -22 7 -13 -4 -37 -8 -55 -10 -18 -1 -37 -6 -44 -10 -9 -5 -10 0 -5
20 6 25 -6 36 -19 16 -3 -5 -15 -10 -26 -10 -32 0 -20 34 13 38 22 3 27 8 25
25 -1 16 4 23 21 25 26 4 29 -13 5 -27 -17 -9 -17 -10 0 -17 19 -7 104 13 113
27 3 5 24 18 48 28 23 11 47 31 54 45 6 13 26 32 44 40 55 26 90 64 82 89 -4
12 -11 25 -17 28 -5 4 -1 12 10 18 11 5 23 8 26 5 3 -3 17 2 31 11 23 15 30
14 28 -6 0 -3 15 -6 34 -6 29 -1 37 4 51 30 l16 31 -28 -18 c-27 -17 -27 -17
-20 4 7 22 7 22 -21 4 -27 -18 -27 -18 -17 0 6 10 8 27 6 37 -3 11 -1 19 4 19
14 0 99 83 107 104 5 14 14 17 36 14 29 -4 42 6 18 14 -25 9 3 57 54 94 99 71
206 193 179 202 -17 6 -13 16 24 56 36 39 43 56 25 56 -5 0 -10 13 -10 28 0
34 36 72 68 72 17 0 24 8 29 30 3 17 9 30 14 30 5 0 9 20 9 45 0 39 3 45 21
45 13 0 23 10 30 30 8 20 17 29 30 27 13 -1 25 8 36 28 9 17 20 37 25 45 5 8
11 23 14 33 4 9 12 17 20 17 22 0 34 33 16 46 -18 13 -19 60 -3 124 15 56 19
120 8 113 -5 -3 -8 8 -6 23 4 58 -1 84 -17 84 -11 0 -14 6 -8 22 4 12 7 41 8
65 0 23 7 48 14 55 17 17 15 38 -4 38 -11 0 -14 8 -12 28 2 15 8 26 16 25 6
-2 12 4 12 13 0 8 -4 12 -10 9 -6 -4 -10 5 -10 19 0 20 -5 26 -21 26 -24 0
-46 46 -56 115 -5 38 -3 45 11 45 11 0 16 9 16 29 0 31 15 50 23 29 3 -7 12 4
21 24 22 50 20 55 -8 29 -16 -15 -26 -19 -31 -12 -9 16 -22 5 -29 -24 -4 -14
-14 -34 -24 -44 -9 -10 -24 -27 -32 -39 -17 -26 -30 -28 -30 -7 0 8 5 15 10
15 6 0 10 9 10 19 0 11 4 21 10 23 5 2 13 18 16 37 7 32 6 33 -15 21 -12 -6
-24 -19 -27 -28 -3 -9 -9 -24 -14 -33 -7 -14 -27 -107 -46 -224 -4 -22 -9 -34
-12 -26 -6 17 -27 -44 -37 -106 -12 -84 -120 -298 -223 -443 -85 -120 -211
-249 -327 -335 -22 -17 -41 -33 -43 -37 -2 -5 -10 -8 -17 -8 -7 0 -15 -4 -17
-9 -6 -16 -161 -102 -253 -141 -95 -40 -235 -83 -235 -72 0 4 26 21 58 37 75
39 66 32 225 189 76 75 142 136 147 136 6 0 10 6 10 14 0 8 18 29 40 47 22 18
40 39 40 47 0 7 4 11 9 8 5 -3 20 9 34 27 14 17 46 53 71 80 25 26 46 54 46
62 0 8 5 15 10 15 6 0 10 -7 10 -16 0 -8 5 -12 11 -9 6 4 7 19 4 36 -5 24 -2
34 15 49 13 11 26 17 30 15 5 -3 11 8 15 25 4 16 11 30 16 30 13 0 10 32 -5
53 -8 10 -12 26 -9 36 3 10 0 22 -6 25 -6 4 -11 3 -11 -3 0 -14 -29 -41 -44
-41 -9 0 -6 14 10 47 13 25 24 63 24 84 0 20 6 40 13 43 10 5 10 7 0 12 -8 3
-13 23 -12 47 l1 42 14 -33 c12 -28 17 -32 29 -22 8 7 15 21 15 31 0 10 5 21
10 24 6 3 10 -1 10 -9 0 -9 5 -16 10 -16 6 0 10 14 10 30 0 17 -4 30 -10 30
-5 0 -10 10 -9 23 0 19 1 19 8 4 5 -15 9 -12 19 18 8 19 11 45 8 58 -3 12 -3
16 0 10 9 -21 24 -15 24 10 0 35 11 67 21 61 5 -3 9 4 9 16 0 12 4 30 10 40
15 29 32 200 21 214 -7 8 -7 45 0 106 5 51 5 96 1 99 -5 3 -10 38 -11 76 -1
39 -5 80 -7 92 -4 15 1 25 16 33 15 8 20 18 17 31 -3 10 -2 19 3 19 10 0 79
-202 90 -263 5 -27 13 -54 18 -60 6 -7 12 -21 15 -32 2 -11 5 -3 6 19 1 40 14
42 18 3 11 -91 20 -131 27 -115 9 21 5 61 -18 173 -17 79 -73 271 -86 290 -4
6 -12 26 -19 45 -21 56 -109 230 -150 296 -104 167 -309 391 -466 508 -242
182 -554 320 -825 366 -36 6 -72 13 -81 16 -26 7 -68 78 -67 112 1 17 -5 39
-13 48 -7 9 -18 26 -24 38 -16 33 -127 112 -192 136 -32 12 -99 27 -150 33
l-92 12 78 38 79 39 93 -16 c51 -9 119 -16 151 -16 50 0 62 4 82 25 13 14 32
25 42 25 28 0 49 16 35 25 -9 5 -9 10 0 21 9 11 9 17 -1 29 -11 13 -8 15 16
16 68 1 69 12 5 62 -34 26 -61 52 -61 58 0 7 12 22 26 35 l25 24 -31 56 -32
55 36 -6 c36 -7 52 7 21 19 -23 8 -18 26 8 26 19 1 20 2 5 11 -9 5 -15 15 -12
22 9 24 -99 51 -331 82 -55 7 -143 20 -195 29 -100 17 -191 19 -275 6z m-1935
-674 c0 -16 -44 -76 -56 -76 -18 0 -18 17 0 27 7 4 18 18 25 31 10 19 31 31
31 18z m-270 -16 c0 -5 -5 -10 -12 -10 -7 0 -27 -14 -45 -32 -37 -35 -48 -34
-34 5 7 17 22 30 43 36 44 12 48 13 48 1z m-130 -8 c0 -4 -13 -29 -28 -57 -18
-34 -34 -50 -47 -50 -11 0 -30 -6 -42 -13 -19 -10 -23 -10 -23 0 1 19 35 92
52 108 15 15 88 25 88 12z m434 -46 c-9 -25 -27 -52 -40 -61 -28 -18 -104 -47
-104 -39 0 15 34 53 53 58 12 3 37 26 56 51 18 25 37 43 41 40 5 -3 2 -25 -6
-49z m-163 -15 c-13 -13 -21 -34 -21 -55 0 -19 -9 -44 -20 -57 l-19 -24 -2 30
c-1 17 -1 39 0 50 2 23 74 101 79 86 2 -5 -6 -19 -17 -30z m-241 -42 c0 -12
-26 -47 -75 -100 -18 -20 -42 -56 -54 -80 l-21 -44 5 42 c4 30 15 53 40 80 19
21 38 47 41 58 13 41 64 76 64 44z m88 -1 c-3 -7 -15 -15 -28 -16 -21 -3 -22
-2 -11 12 16 19 44 21 39 4z m-472 -35 c-10 -10 -19 5 -10 18 6 11 8 11 12 0
2 -7 1 -15 -2 -18z m-250 -20 c-3 -10 -15 -24 -26 -30 -17 -11 -18 -10 -13 5
8 21 35 54 41 48 2 -3 1 -13 -2 -23z m391 20 c-2 -5 -11 -25 -21 -45 -16 -36
-33 -54 -42 -46 -7 7 46 98 57 98 6 0 8 -3 6 -7z m-159 -53 c-5 -17 -14 -33
-19 -36 -12 -7 -11 18 1 51 14 37 32 22 18 -15z m642 6 c0 -2 -8 -10 -17 -17
-16 -13 -17 -12 -4 4 13 16 21 21 21 13z m-921 -33 c-1 -22 -103 -193 -114
-193 -10 0 32 90 70 152 27 43 46 60 44 41z m681 -52 c-11 -21 -30 -37 -30
-25 0 8 30 44 37 44 2 0 -1 -9 -7 -19z m258 -33 c-3 -7 -15 -14 -27 -14 -12
-1 -29 -8 -39 -16 -37 -32 -45 -29 -13 5 34 36 88 53 79 25z m109 0 c-38 -97
-37 -96 -99 -126 -5 -2 -8 4 -8 13 0 16 28 60 64 103 21 23 52 31 43 10z
m-314 -29 c-3 -11 -16 -27 -29 -36 -13 -8 -24 -21 -24 -29 0 -18 -20 -28 -32
-16 -17 17 30 90 61 95 14 2 27 5 28 6 0 0 -1 -8 -4 -20z m-563 -14 c0 -11
-50 -100 -69 -125 -11 -14 -22 -22 -26 -19 -13 13 15 92 42 120 25 25 53 38
53 24z m430 -9 c0 -12 -48 -94 -53 -90 -8 9 11 77 25 85 14 9 28 12 28 5z
m576 -75 c-9 -10 -16 -25 -16 -35 0 -19 -32 -35 -37 -19 -5 15 -45 4 -63 -17
-19 -23 -67 -39 -54 -19 27 45 70 80 91 76 18 -3 31 5 56 37 30 37 32 39 35
17 2 -12 -4 -31 -12 -40z m-926 27 c0 -33 -69 -138 -91 -138 -12 0 -21 57 -14
88 11 50 105 95 105 50z m530 12 c11 -7 9 -11 -14 -20 -34 -12 -44 -7 -26 15
14 17 20 18 40 5z m-924 -88 c-14 -14 -16 -14 -16 -1 0 20 23 44 29 28 2 -6
-4 -18 -13 -27z m1024 12 c0 -4 -11 -27 -24 -53 -13 -25 -27 -54 -30 -63 -7
-22 -54 -24 -62 -3 -6 14 43 86 76 112 16 13 40 17 40 7z m-492 -22 c-3 -10 1
-27 8 -37 19 -25 18 -61 -2 -69 -9 -3 -28 -6 -43 -6 -15 0 -32 -5 -39 -12 -21
-21 -13 6 13 44 14 20 25 40 25 43 0 8 31 55 37 55 3 0 3 -8 1 -18z m-65 -44
c-10 -11 -19 -15 -21 -8 -5 15 18 41 30 34 5 -3 1 -15 -9 -26z m265 6 c7 -4
-19 -44 -29 -44 -5 0 -9 16 -7 35 2 29 4 32 18 22 8 -6 16 -12 18 -13z m64 4
c-7 -7 -12 -8 -12 -2 0 14 12 26 19 19 2 -3 -1 -11 -7 -17z m508 4 c0 -5 -9
-17 -20 -27 -22 -20 -26 -14 -10 16 11 19 30 26 30 11z m-530 -32 c0 -5 -5
-10 -11 -10 -5 0 -7 5 -4 10 3 6 8 10 11 10 2 0 4 -4 4 -10z m480 -27 c0 -13
-53 -63 -67 -63 -22 0 -15 23 15 47 26 22 52 30 52 16z m-430 -19 c0 -10 5
-14 15 -10 8 3 21 9 29 12 9 3 20 -4 29 -21 11 -22 11 -35 1 -75 -29 -112
-119 -195 -173 -161 -8 5 -11 16 -8 25 5 11 1 16 -14 16 -37 0 -19 41 31 70
44 26 45 28 46 78 2 49 16 82 35 82 5 0 9 -7 9 -16z m1240 -3 c0 -5 -7 -11
-15 -15 -9 -3 -25 -21 -36 -41 -12 -19 -25 -35 -30 -35 -19 0 -8 26 26 63 33
35 55 47 55 28z m-1040 -8 c0 -15 -40 -73 -50 -73 -16 0 -12 29 8 55 16 23 42
34 42 18z m310 -23 c0 -5 -5 -10 -11 -10 -5 0 -7 5 -4 10 3 6 8 10 11 10 2 0
4 -4 4 -10z m-1180 -19 c-12 -23 -29 -35 -37 -27 -7 7 26 46 39 46 5 0 4 -9
-2 -19z m527 -3 c-3 -8 -6 -5 -6 6 -1 11 2 17 5 13 3 -3 4 -12 1 -19z m805
-20 c-7 -7 -12 -8 -12 -2 0 14 12 26 19 19 2 -3 -1 -11 -7 -17z m-92 -7 c0 -5
-7 -11 -14 -14 -10 -4 -13 -1 -9 9 6 15 23 19 23 5z m-1290 -26 c0 -8 -4 -15
-10 -15 -5 0 -7 7 -4 15 4 8 8 15 10 15 2 0 4 -7 4 -15z m1284 -80 c-12 -16
-24 -41 -26 -54 -1 -13 -18 -35 -37 -50 l-34 -26 13 25 c10 18 10 25 1 28 -7
2 1 17 19 38 16 19 30 43 30 53 0 10 10 31 22 47 l23 28 5 -29 c4 -22 0 -39
-16 -60z m3329 78 c-7 -2 -19 -2 -25 0 -7 3 -2 5 12 5 14 0 19 -2 13 -5z
m-3743 -29 c0 -8 4 -14 10 -14 5 0 15 -10 21 -22 9 -17 9 -24 -3 -32 -8 -6
-21 -24 -29 -41 -8 -18 -21 -29 -32 -29 -9 1 -35 2 -57 3 -22 0 -40 6 -40 12
0 5 5 7 11 3 14 -9 79 64 79 88 0 27 19 60 31 53 5 -4 9 -13 9 -21z m-767 -53
c-15 -23 -29 -38 -31 -33 -1 5 9 27 23 47 14 21 26 43 26 49 1 6 3 4 6 -5 2
-9 -9 -35 -24 -58z m407 51 c0 -10 -3 -22 -7 -25 -10 -11 -32 13 -26 29 8 20
33 17 33 -4z m4160 -12 c0 -5 7 -10 15 -10 9 0 12 -6 9 -15 -4 -8 -1 -15 7
-15 7 0 10 -2 7 -5 -9 -9 -38 7 -38 21 0 7 -8 18 -17 23 -17 10 -17 10 0 11 9
0 17 -4 17 -10z m-4291 -64 c-23 -40 -39 -46 -39 -17 0 17 50 65 58 56 1 -1
-7 -19 -19 -39z m1438 4 c-14 -21 -12 -70 4 -70 5 0 -6 -20 -23 -45 -18 -25
-37 -45 -42 -45 -8 0 -8 3 0 8 19 13 25 42 9 42 -19 0 -19 9 0 30 13 14 11 16
-23 13 l-37 -4 23 18 c13 10 40 32 60 50 40 35 53 36 29 3z m-756 -3 c-10 -9
-11 -8 -5 6 3 10 9 15 12 12 3 -3 0 -11 -7 -18z m567 -14 c-15 -15 -31 -24
-34 -20 -10 10 26 47 45 47 11 0 8 -7 -11 -27z m3173 -21 c-6 -2 -11 -8 -11
-14 0 -5 9 -7 19 -3 11 3 22 1 26 -5 7 -12 -34 -13 -53 -2 -7 5 -10 16 -6 25
3 9 2 17 -4 17 -5 0 -12 7 -16 15 -4 10 4 8 25 -7 17 -13 25 -24 20 -26z
m-3638 18 c-3 -11 -9 -20 -14 -20 -11 0 -11 3 -3 24 9 23 23 20 17 -4z m-649
-5 c-4 -8 -8 -15 -10 -15 -2 0 -4 7 -4 15 0 8 4 15 10 15 5 0 7 -7 4 -15z
m991 -4 c-3 -6 -11 -11 -17 -11 -6 0 -6 6 2 15 14 17 26 13 15 -4z m-1253 -24
c-12 -13 -22 -31 -22 -40 0 -9 -5 -19 -11 -23 -20 -12 0 48 23 73 12 13 24 21
26 18 3 -3 -4 -15 -16 -28z m1036 -19 c-13 -18 -27 -41 -31 -50 -6 -18 -27
-25 -27 -9 0 13 71 103 77 97 3 -3 -5 -20 -19 -38z m-217 -5 c-12 -20 -14 -14
-5 12 4 9 9 14 11 11 3 -2 0 -13 -6 -23z m449 23 c0 -2 -8 -10 -17 -17 -16
-13 -17 -12 -4 4 13 16 21 21 21 13z m-1093 -34 c-10 -10 -17 -27 -17 -38 0
-11 -6 -29 -14 -39 -13 -18 -14 -17 -21 13 -8 40 15 82 47 82 20 0 20 -1 5
-18z m219 4 c20 -21 18 -29 -21 -91 -41 -63 -60 -71 -52 -22 6 37 43 127 52
127 4 0 13 -6 21 -14z m4224 -8 c13 -17 15 -27 8 -35 -17 -20 -30 -15 -23 8 6
19 4 21 -14 16 -14 -3 -21 0 -21 8 0 11 11 20 28 24 2 1 12 -9 22 -21z m-4139
-31 c-20 -31 -41 -47 -41 -30 0 18 41 74 51 68 6 -4 3 -18 -10 -38z m-625 -2
c-4 -14 -2 -25 4 -25 18 0 11 -34 -15 -73 -27 -39 -45 -48 -45 -22 0 8 -5 23
-11 33 -16 26 32 103 70 111 2 1 0 -10 -3 -24z m976 -17 c-7 -7 -12 -8 -12 -2
0 14 12 26 19 19 2 -3 -1 -11 -7 -17z m-880 -31 c-5 -7 -12 -25 -16 -40 -8
-33 -32 -31 -28 3 3 29 46 82 50 63 2 -8 -1 -19 -6 -26z m272 17 c9 -22 8 -24
-9 -18 -8 4 -15 12 -15 20 0 19 16 18 24 -2z m546 -14 c-6 -11 -13 -20 -16
-20 -2 0 0 9 6 20 6 11 13 20 16 20 2 0 0 -9 -6 -20z m-64 -27 c-10 -10 -19 5
-10 18 6 11 8 11 12 0 2 -7 1 -15 -2 -18z m3985 -15 c11 -21 11 -22 -4 -9 -10
7 -17 17 -17 22 0 15 9 10 21 -13z m-3919 -50 c-7 -7 -12 -8 -12 -2 0 14 12
26 19 19 2 -3 -1 -11 -7 -17z m148 -9 c0 -6 -9 -22 -20 -36 -11 -14 -20 -31
-20 -38 0 -7 -7 -18 -15 -25 -21 -17 -19 -9 12 55 25 51 43 70 43 44z m-93
-71 c-14 -10 -31 -34 -37 -53 -6 -20 -15 -33 -20 -30 -5 3 -11 1 -15 -5 -3 -5
-10 -10 -16 -10 -18 0 -8 30 21 64 17 19 35 48 41 65 6 17 15 29 19 26 5 -3
12 0 17 7 5 9 9 3 11 -16 3 -23 -2 -34 -21 -48z m-952 23 c-7 -32 -25 -34 -25
-2 0 17 20 44 28 37 2 -3 1 -18 -3 -35z m82 7 c-3 -7 -5 -2 -5 12 0 14 2 19 5
13 2 -7 2 -19 0 -25z m250 -5 c-3 -10 -5 -4 -5 12 0 17 2 24 5 18 2 -7 2 -21
0 -30z m354 -23 c-15 -51 -34 -53 -26 -2 10 59 14 67 27 54 8 -8 8 -22 -1 -52z
m-231 -14 c0 -36 -53 -115 -65 -96 -7 12 44 130 56 130 5 0 9 -15 9 -34z m118
-31 c0 -41 -3 -55 -14 -55 -18 0 -19 46 -1 83 6 15 13 27 13 27 1 0 2 -25 2
-55z m-218 35 c0 -5 -5 -10 -11 -10 -5 0 -7 5 -4 10 3 6 8 10 11 10 2 0 4 -4
4 -10z m-159 -49 c-15 -27 -71 -55 -71 -36 0 14 5 19 50 54 28 21 37 13 21
-18z m569 -11 c0 -5 -5 -10 -11 -10 -5 0 -7 5 -4 10 3 6 8 10 11 10 2 0 4 -4
4 -10z m-119 -33 c-8 -8 -11 -7 -11 4 0 20 13 34 18 19 3 -7 -1 -17 -7 -23z
m186 1 c-3 -8 -6 -5 -6 6 -1 11 2 17 5 13 3 -3 4 -12 1 -19z m-356 -25 c-5
-17 -6 -36 -1 -42 10 -18 2 -53 -21 -81 l-19 -25 0 60 c0 43 6 69 21 94 24 39
32 37 20 -6z m110 -22 c-12 -12 -21 -27 -21 -35 0 -8 -7 -16 -15 -20 -10 -3
-15 1 -15 13 0 10 7 24 15 31 8 7 15 18 15 26 0 7 8 17 18 23 26 15 28 -13 3
-38z m-362 -52 c1 -23 -7 -46 -20 -63 -30 -38 -42 -32 -23 12 10 20 16 54 15
75 -2 48 10 71 20 37 4 -14 7 -41 8 -61z m88 34 c-7 -39 -32 -102 -45 -115 -8
-8 -12 -1 -17 26 -6 30 -2 44 19 76 31 47 51 52 43 13z m4738 7 c3 -5 1 -10
-4 -10 -6 0 -11 5 -11 10 0 6 2 10 4 10 3 0 8 -4 11 -10z m-5419 -25 c-5 -18
-2 -25 9 -25 18 0 20 -37 3 -43 -42 -14 -63 29 -36 73 18 28 31 25 24 -5z
m1441 -37 c-3 -8 -6 -5 -6 6 -1 11 2 17 5 13 3 -3 4 -12 1 -19z m3403 -72 c0
-7 20 -32 45 -55 25 -23 43 -46 40 -51 -4 -6 1 -10 9 -10 9 0 16 -7 16 -15 0
-8 5 -15 10 -15 6 0 10 -8 10 -19 0 -10 7 -24 15 -31 9 -7 30 -43 47 -79 18
-36 34 -68 37 -71 3 -3 6 -11 7 -17 3 -35 4 -38 14 -23 7 11 8 5 3 -19 -4 -24
-3 -32 5 -27 7 4 13 -11 17 -41 4 -27 13 -62 21 -80 8 -17 14 -44 14 -61 0
-16 6 -35 14 -41 57 -48 41 -503 -24 -689 -11 -31 -20 -62 -20 -69 0 -13 -16
-52 -77 -181 -33 -71 -125 -222 -154 -252 -8 -8 -27 -33 -44 -55 -42 -57 -116
-135 -140 -147 -17 -9 -16 -7 4 16 14 14 19 26 13 26 -6 0 -28 -20 -49 -45
-20 -25 -45 -47 -54 -50 -9 -3 -19 -14 -22 -25 -3 -11 -21 -29 -41 -41 -20
-11 -36 -25 -36 -30 0 -5 -9 -9 -20 -9 -11 0 -20 -4 -20 -9 0 -15 -92 -62
-109 -56 -42 16 -111 14 -152 -5 -45 -20 -87 -28 -61 -11 11 7 11 9 -2 14 -23
9 -52 -3 -35 -14 10 -6 9 -10 -6 -15 -11 -4 -22 -10 -25 -13 -3 -3 -15 -11
-27 -18 -17 -10 -24 -9 -33 2 -7 8 -17 12 -22 9 -5 -3 -42 -7 -83 -7 -70 -2
-85 4 -40 17 20 5 -26 0 -100 -11 -33 -5 -36 -7 -20 -14 11 -4 32 -8 48 -8 15
-1 27 -6 27 -12 0 -7 -12 -10 -30 -7 -16 3 -30 1 -30 -3 0 -4 -10 -11 -22 -15
-20 -6 -20 -7 -3 -17 11 -6 58 -8 117 -4 56 3 98 1 98 -4 0 -13 -289 -11 -369
2 -183 29 -376 105 -536 209 -91 60 -263 228 -317 310 -87 134 -144 274 -117
290 12 8 89 -78 89 -100 0 -5 4 -9 8 -8 5 2 35 -27 67 -64 32 -38 62 -68 66
-68 4 0 24 -17 45 -38 38 -37 203 -142 225 -142 5 0 24 -7 41 -16 56 -29 191
-75 248 -85 168 -29 435 -26 555 6 239 65 447 183 605 345 36 37 74 80 85 96
11 16 33 42 48 58 15 16 26 31 23 34 -3 2 3 17 14 32 11 15 17 30 13 34 -3 3
-2 6 4 6 12 0 35 58 28 70 -3 4 2 13 10 20 9 8 13 21 9 32 -3 11 11 51 39 106
100 196 143 398 134 622 -5 132 -30 293 -49 317 -5 7 -6 18 -2 24 4 8 3 9 -4
5 -7 -4 -12 -2 -12 4 0 6 -15 43 -33 83 -19 41 -33 87 -33 107 1 19 -4 41 -11
48 -7 7 -9 20 -6 29 4 11 2 14 -5 9 -6 -3 -16 2 -22 13 -9 17 -8 20 6 14 12
-4 15 -3 10 5 -4 7 -2 12 3 12 6 0 11 -6 11 -14z m620 -6 c0 -11 5 -20 10 -20
6 0 8 -10 4 -24 -3 -15 1 -29 11 -40 17 -17 17 -46 0 -49 -5 -1 -14 16 -19 38
-4 22 -15 57 -22 78 -12 32 -12 37 1 37 8 0 15 -9 15 -20z m-3973 -25 c-6 -19
-12 -33 -15 -31 -7 7 9 66 18 66 4 0 3 -16 -3 -35z m-1417 -107 c0 -27 -4 -38
-15 -38 -16 0 -21 52 -9 85 10 25 24 -2 24 -47z m1592 11 c-15 -33 -25 -45
-41 -45 -19 0 -21 4 -16 26 10 37 25 52 40 40 10 -8 15 -6 20 10 4 12 9 20 11
17 3 -2 -4 -24 -14 -48z m-70 14 c3 -36 -4 -67 -19 -87 -14 -20 -15 -18 -9 28
3 27 6 55 6 62 0 21 20 17 22 -3z m-1522 -95 c-1 -30 -16 -38 -33 -18 -22 27
-22 30 8 30 14 0 25 -6 25 -12z m1424 -132 c-6 -16 -24 -23 -24 -8 0 10 22 33
27 28 2 -2 1 -11 -3 -20z m3116 -44 c0 -6 4 -12 9 -14 13 -5 81 -136 97 -188
25 -80 38 -247 27 -330 l-10 -75 -3 100 c-1 55 -2 104 -1 108 7 45 -46 250
-64 243 -18 -6 -45 14 -45 34 0 23 10 26 28 8 7 -7 12 -9 12 -5 0 7 -46 92
-66 122 -19 26 -18 40 1 21 8 -8 15 -19 15 -24z m-3153 -34 c-3 -8 -6 -5 -6 6
-1 11 2 17 5 13 3 -3 4 -12 1 -19z m-143 -48 c10 0 13 -24 8 -67 -1 -7 -7 -13
-14 -13 -7 0 -23 -12 -36 -27 l-23 -28 6 50 c4 28 11 70 17 95 11 44 12 44 21
17 5 -15 14 -27 21 -27z m3280 5 c3 -8 1 -15 -4 -15 -6 0 -10 7 -10 15 0 8 2
15 4 15 2 0 6 -7 10 -15z m-3372 -185 c-5 -72 -7 -80 -14 -50 -9 43 4 153 17
138 1 -2 0 -41 -3 -88z m4258 3 c0 -5 -5 -15 -10 -23 -8 -12 -10 -11 -10 8 0
12 5 22 10 22 6 0 10 -3 10 -7z m-855 -173 c3 -5 1 -10 -4 -10 -6 0 -11 5 -11
10 0 6 2 10 4 10 3 0 8 -4 11 -10z m100 -237 c-3 -19 -9 -33 -12 -30 -3 3 -2
25 2 49 5 24 10 37 12 30 3 -7 2 -29 -2 -49z m552 10 c-3 -10 -5 -2 -5 17 0
19 2 27 5 18 2 -10 2 -26 0 -35z m34 -9 c-9 -38 -9 -38 -10 -7 -1 33 10 74 16
57 2 -6 -1 -28 -6 -50z m583 -71 c-5 -19 -8 -20 -20 -8 -17 17 -18 32 -1 38
18 7 27 -6 21 -30z m-1194 -24 c-18 -42 -25 -28 -9 18 7 21 14 32 17 25 2 -7
-2 -26 -8 -43z m1152 -3 c-8 -14 -20 27 -14 44 4 11 8 8 12 -10 4 -14 5 -29 2
-34z m-171 7 c-12 -20 -14 -14 -5 12 4 9 9 14 11 11 3 -2 0 -13 -6 -23z
m-1004 -65 c-3 -8 -6 -5 -6 6 -1 11 2 17 5 13 3 -3 4 -12 1 -19z m-3579 -61
c2 -19 -1 -27 -12 -27 -11 0 -16 10 -16 31 0 38 24 35 28 -4z m3547 -12 c-9
-20 -19 -35 -21 -32 -3 2 3 21 12 41 10 19 20 34 22 31 3 -2 -3 -21 -13 -40z
m-3623 -19 c5 -21 7 -41 5 -43 -6 -5 -33 37 -42 65 -6 20 -4 23 11 20 12 -2
21 -17 26 -42z m1669 -1 c7 -13 3 -12 -10 5 -11 14 -21 30 -21 35 0 11 14 -7
31 -40z m-1521 -17 c0 -25 -3 -29 -10 -18 -13 20 -13 50 0 50 6 0 10 -15 10
-32z m1561 -35 c13 -16 12 -17 -3 -4 -10 7 -18 15 -18 17 0 8 8 3 21 -13z
m1871 -5 c-7 -7 -12 -8 -12 -2 0 14 12 26 19 19 2 -3 -1 -11 -7 -17z m-3522
-8 c0 -11 -4 -20 -9 -20 -5 0 -11 -7 -13 -15 -3 -14 -5 -14 -25 0 -39 28 -27
50 30 54 11 1 17 -6 17 -19z m4812 -12 c-7 -7 -12 -8 -12 -2 0 14 12 26 19 19
2 -3 -1 -11 -7 -17z m-3131 -15 c13 -16 12 -17 -3 -4 -10 7 -18 15 -18 17 0 8
8 3 21 -13z m2483 -19 c8 -22 8 -24 -8 -24 -7 0 -19 -7 -26 -15 -17 -21 -30
-19 -30 4 0 24 16 36 23 19 4 -8 8 -4 12 10 8 26 20 29 29 6z m-4311 -51 c3
-27 4 -50 2 -51 -6 -6 -22 31 -30 66 -5 24 -3 32 8 32 10 0 16 -15 20 -47z
m3607 13 c0 -3 -4 -8 -10 -11 -5 -3 -10 -1 -10 4 0 6 5 11 10 11 6 0 10 -2 10
-4z m-3270 -37 c12 -22 8 -35 -8 -25 -13 8 -22 46 -11 46 4 0 13 -9 19 -21z
m80 -98 c0 -6 -4 -12 -8 -15 -5 -3 -9 1 -9 9 0 8 4 15 9 15 4 0 8 -4 8 -9z
m3025 -31 c-3 -5 -12 -10 -18 -10 -7 0 -25 -13 -40 -30 -30 -31 -72 -44 -128
-38 l-34 4 30 8 c17 5 43 18 60 30 16 12 39 26 50 33 25 14 89 17 80 3z m-425
-10 c0 -5 -8 -10 -17 -10 -15 0 -16 2 -3 10 19 12 20 12 20 0z m-2604 -88
c-11 -10 -25 13 -31 48 l-6 35 21 -38 c12 -22 19 -42 16 -45z m1697 58 c-3
-11 -6 -20 -7 -20 -1 0 -9 9 -19 20 -16 19 -16 20 7 20 19 0 23 -4 19 -20z
m57 -91 c0 -24 -13 -25 -31 -2 -10 11 -10 14 -1 9 7 -4 12 -1 12 9 0 9 5 13
10 10 6 -3 10 -15 10 -26z m-1714 7 c3 -8 4 -29 2 -48 l-3 -33 -22 34 c-16 26
-19 38 -11 48 14 17 27 17 34 -1z m2669 4 c-3 -5 -11 -10 -16 -10 -6 0 -7 5
-4 10 3 6 11 10 16 10 6 0 7 -4 4 -10z m-821 -81 c-21 -23 -36 -24 -74 -4 -31
16 -42 39 -15 29 11 -5 14 -2 8 12 -6 18 -6 18 14 2 26 -24 39 -23 60 6 l18
24 3 -25 c2 -14 -4 -33 -14 -44z m776 61 c-20 -13 -33 -13 -25 0 3 6 14 10 23
10 15 0 15 -2 2 -10z m-55 -20 c-11 -5 -27 -9 -35 -9 -13 -1 -13 0 0 9 8 5 24
9 35 9 l20 0 -20 -9z m-65 -19 c-18 -11 -97 -26 -89 -18 5 6 72 24 94 26 6 0
3 -4 -5 -8z m-417 -28 c-7 -2 -19 -2 -25 0 -7 3 -2 5 12 5 14 0 19 -2 13 -5z
m277 -4 c-25 -4 -92 -7 -150 -6 l-105 1 115 6 c63 3 131 6 150 7 30 0 29 -1
-10 -8z m1280 -239 c0 -5 -5 -10 -11 -10 -5 0 -7 5 -4 10 3 6 8 10 11 10 2 0
4 -4 4 -10z m-280 -145 c0 -9 -82 -46 -93 -42 -7 2 8 13 33 25 47 21 60 25 60
17z m-466 -66 c-4 -8 1 -9 17 -5 17 4 14 1 -8 -11 -36 -18 -53 -12 -33 12 14
17 35 21 24 4z m-361 -96 c-7 -2 -19 -2 -25 0 -7 3 -2 5 12 5 14 0 19 -2 13
-5z m716 -177 c-10 -9 -69 -36 -69 -32 0 7 52 35 64 36 5 0 7 -2 5 -4z m-2608
-33 c13 -15 12 -15 -8 -4 -24 12 -29 21 -14 21 5 0 15 -7 22 -17z m2519 -13
c-8 -5 -19 -10 -25 -10 -5 0 -3 5 5 10 8 5 20 10 25 10 6 0 3 -5 -5 -10z m-54
-25 c-20 -15 -36 -19 -36 -10 0 5 38 23 50 24 3 0 -4 -6 -14 -14z m-68 -29
c-16 -8 -32 -18 -38 -21 -5 -3 -10 -2 -10 2 0 10 38 30 60 32 8 0 3 -6 -12
-13z m-1698 -132 c0 -8 -4 -14 -10 -14 -5 0 -10 2 -10 4 0 2 -3 12 -6 20 -5
12 -2 15 10 10 9 -3 16 -12 16 -20z m2205 -143 c6 -11 -33 -26 -43 -16 -4 3 0
10 8 15 19 12 27 12 35 1z m-1120 -381 c5 -15 19 -21 64 -26 52 -6 58 -9 53
-26 -4 -16 -11 -19 -33 -14 -16 3 -29 1 -31 -6 -3 -7 -20 -7 -58 2 -30 6 -84
13 -119 15 -64 4 -98 15 -47 15 15 0 34 7 42 15 9 8 19 15 24 15 5 0 15 -7 24
-15 18 -18 29 -19 23 -2 -5 15 21 47 39 47 7 0 15 -9 19 -20z m14 -145 c9 -5
10 -10 2 -18 -7 -7 -7 -14 0 -23 14 -17 3 -34 -22 -34 -12 0 -19 7 -19 19 0
38 -11 51 -45 51 -19 0 -37 4 -40 10 -7 12 105 8 124 -5z m429 3 c-3 -7 -22
-14 -44 -15 l-39 -3 35 14 c46 18 52 18 48 4z m-288 -38 c0 -5 -7 -10 -15 -10
-8 0 -15 5 -15 10 0 6 7 10 15 10 8 0 15 -4 15 -10z m530 -15 c-14 -16 -40
-20 -40 -6 0 10 17 19 39 20 11 1 11 -2 1 -14z m-112 -12 c-2 -12 -13 -18 -31
-18 -30 -1 -33 5 -15 23 19 19 50 15 46 -5z m-608 -128 c0 -8 -7 -15 -15 -15
-16 0 -20 12 -8 23 11 12 23 8 23 -8z m-155 -15 c-3 -5 -12 -7 -20 -3 -21 7
-19 13 6 13 11 0 18 -4 14 -10z m-116 -14 c9 -11 8 -15 -5 -20 -8 -3 -17 -6
-18 -6 -1 0 -2 9 -3 20 -2 23 10 26 26 6z m126 -26 c4 -6 -7 -10 -24 -10 -17
0 -31 5 -31 10 0 6 11 10 24 10 14 0 28 -4 31 -10z"/>
<path d="M3637 8012 c-16 -17 -24 -62 -11 -62 23 0 44 24 44 50 0 34 -10 38
-33 12z"/>
<path d="M6278 4953 c6 -2 18 -2 25 0 6 3 1 5 -13 5 -14 0 -19 -2 -12 -5z"/>
<path d="M6373 4913 c-18 -6 -16 -20 2 -27 17 -6 65 13 65 26 0 9 -47 10 -67
1z"/>
<path d="M3765 9325 c-35 -40 -45 -59 -37 -67 15 -15 -6 -58 -29 -58 -21 0
-43 -31 -53 -72 -4 -16 -11 -28 -16 -28 -6 0 -10 -7 -10 -15 0 -24 30 -5 37
24 3 14 21 42 39 61 32 34 33 34 53 16 25 -23 26 -37 5 -78 -17 -34 -20 -33
31 -12 29 12 15 -26 -30 -83 -24 -31 -42 -59 -40 -62 3 -2 23 9 45 24 22 15
43 25 46 22 3 -3 -2 -20 -12 -39 -22 -43 -35 -98 -22 -98 10 0 75 44 122 84
23 19 26 27 18 42 -6 11 -9 24 -9 29 1 6 -10 11 -25 13 -16 2 -28 6 -28 9 0 2
16 23 35 46 42 48 45 66 10 59 -37 -7 -32 17 15 62 37 36 90 117 90 138 0 12
-37 1 -69 -21 -20 -12 -22 -17 -9 -19 28 -5 28 -29 0 -42 -15 -6 -28 -8 -30
-2 -1 5 -25 5 -59 0 -30 -5 -58 -6 -61 -3 -3 3 11 20 31 37 40 36 53 80 26 86
-10 2 -35 -19 -64 -53z"/>
<path d="M4040 9350 c0 -5 5 -10 10 -10 6 0 10 5 10 10 0 6 -4 10 -10 10 -5 0
-10 -4 -10 -10z"/>
<path d="M4070 9308 c0 -4 14 -8 30 -8 17 0 30 4 30 8 0 5 -13 9 -30 9 -16 0
-30 -4 -30 -9z"/>
<path d="M4026 9291 c-4 -7 -5 -15 -2 -18 9 -9 19 4 14 18 -4 11 -6 11 -12 0z"/>
<path d="M4052 9228 c-13 -15 -20 -28 -15 -28 12 0 45 40 41 49 -2 4 -13 -5
-26 -21z"/>
<path d="M6800 9200 c0 -5 5 -10 11 -10 5 0 7 5 4 10 -3 6 -8 10 -11 10 -2 0
-4 -4 -4 -10z"/>
<path d="M3995 9181 c-3 -5 -1 -12 5 -16 12 -7 30 2 30 16 0 12 -27 12 -35 0z"/>
<path d="M3678 9088 c-28 -26 -41 -55 -28 -63 10 -6 60 51 60 71 0 19 -3 18
-32 -8z"/>
<path d="M4120 9089 c0 -5 5 -7 10 -4 6 3 10 8 10 11 0 2 -4 4 -10 4 -5 0 -10
-5 -10 -11z"/>
<path d="M4204 9078 l-19 -23 25 20 c14 11 27 21 29 22 2 2 0 3 -6 3 -5 0 -18
-10 -29 -22z"/>
<path d="M3528 9059 c-10 -5 -18 -17 -18 -24 0 -23 16 -17 28 10 6 14 11 25 9
25 -1 0 -10 -5 -19 -11z"/>
<path d="M4077 9063 c-10 -3 -23 -16 -28 -30 -18 -48 11 -42 36 8 9 16 14 28
13 28 -2 -1 -11 -3 -21 -6z"/>
<path d="M4227 8974 c-3 -16 0 -24 10 -24 8 0 12 4 8 9 -3 5 4 12 15 16 27 9
25 20 -4 21 -18 1 -25 -4 -29 -22z"/>
<path d="M4084 8958 c-22 -24 -21 -58 0 -58 20 0 52 40 40 48 -6 4 -13 13 -15
20 -3 9 -11 6 -25 -10z"/>
<path d="M3600 8940 c-19 -17 -41 -30 -50 -30 -16 0 -40 -18 -40 -31 0 -9 81
7 124 25 40 16 41 19 26 47 -14 25 -18 24 -60 -11z"/>
<path d="M3110 8923 c-26 -27 -40 -50 -40 -67 0 -14 3 -26 6 -26 18 0 91 116
80 127 -3 3 -24 -12 -46 -34z"/>
<path d="M3698 8889 c-20 -11 -25 -41 -5 -33 15 5 41 44 30 44 -5 0 -16 -5
-25 -11z"/>
<path d="M4230 8860 c-18 -12 -2 -12 25 0 13 6 15 9 5 9 -8 0 -22 -4 -30 -9z"/>
<path d="M3053 8800 c-19 -29 -17 -48 3 -28 9 8 14 23 12 32 -3 14 -5 14 -15
-4z"/>
<path d="M4693 8501 c-33 -16 -47 -46 -16 -34 18 7 57 43 51 48 -1 1 -18 -5
-35 -14z"/>
<path d="M4508 8481 c-19 -21 -23 -32 -15 -40 7 -7 5 -16 -8 -31 -10 -11 -15
-23 -11 -27 4 -4 10 -3 14 3 4 6 26 23 50 38 45 28 51 40 27 50 -8 3 -15 12
-15 21 0 23 -14 18 -42 -14z"/>
<path d="M4651 8406 c-8 -9 -11 -19 -7 -23 9 -9 29 13 24 27 -2 8 -8 7 -17 -4z"/>
<path d="M4954 8392 c4 -7 1 -23 -8 -37 -20 -31 -20 -35 3 -35 11 0 21 -8 23
-17 2 -13 9 -8 26 20 21 37 21 38 2 32 -14 -4 -20 -2 -20 8 0 8 -8 21 -17 28
-12 10 -15 11 -9 1z"/>
<path d="M4500 8359 c-45 -27 -90 -69 -90 -85 0 -6 10 -14 23 -18 23 -6 57 23
57 50 0 8 4 14 8 14 4 0 16 14 25 30 21 36 22 36 -23 9z"/>
<path d="M4858 8363 c-15 -2 -37 -18 -52 -38 -47 -62 -29 -62 38 0 27 25 48
44 45 44 -2 -1 -16 -4 -31 -6z"/>
<path d="M4519 8283 c-13 -16 -12 -17 4 -4 9 7 17 15 17 17 0 8 -8 3 -21 -13z"/>
<path d="M4681 8286 c-7 -8 -33 -25 -58 -37 -43 -21 -83 -55 -83 -70 0 -4 11
-9 25 -11 l25 -3 -20 -37 c-11 -21 -20 -42 -20 -48 0 -10 41 9 94 45 26 17 29
17 38 2 14 -27 41 -22 32 6 -13 43 -55 50 -85 15 -14 -18 -18 -19 -19 -7 0 19
31 49 52 49 15 0 58 40 58 54 0 4 -14 5 -31 1 -28 -6 -30 -5 -20 13 6 11 16
22 23 25 7 2 10 7 7 11 -3 4 -12 0 -18 -8z"/>
<path d="M4803 8252 c-14 -2 -20 -8 -16 -18 3 -8 -3 -24 -12 -34 -10 -11 -15
-23 -11 -27 3 -4 13 3 22 16 9 12 25 30 36 40 21 21 15 29 -19 23z"/>
<path d="M2650 8107 c-13 -25 -32 -48 -41 -50 -26 -7 -50 -63 -47 -109 l3 -40
35 68 c19 37 43 77 53 88 19 22 31 58 25 77 -2 6 -15 -9 -28 -34z"/>
<path d="M4516 8125 c-3 -8 -2 -15 3 -15 5 0 14 7 21 15 10 12 10 15 -3 15 -8
0 -17 -7 -21 -15z"/>
<path d="M4510 7964 c0 -9 5 -14 12 -12 18 6 21 28 4 28 -9 0 -16 -7 -16 -16z"/>
<path d="M8136 7539 c31 -50 80 -137 108 -194 55 -108 76 -122 80 -54 2 39
-23 94 -71 158 -18 24 -33 49 -33 55 0 6 -12 20 -27 31 -15 11 -43 37 -62 58
-19 20 -39 37 -43 37 -5 0 17 -41 48 -91z"/>
<path d="M2666 7594 c-19 -19 -22 -86 -3 -78 6 3 22 25 34 50 21 42 21 44 3
44 -10 0 -26 -7 -34 -16z"/>
<path d="M2892 7508 c-9 -35 -6 -58 9 -58 8 0 15 20 21 64 5 34 -21 29 -30 -6z"/>
<path d="M3763 7163 c-9 -23 -15 -65 -15 -106 1 -49 -2 -67 -11 -64 -7 2 -12
22 -12 45 0 50 -11 62 -26 29 -6 -14 -17 -23 -24 -21 -13 5 -45 -62 -45 -96 0
-24 18 -36 33 -21 17 17 25 13 29 -11 3 -21 5 -21 21 10 10 17 24 32 32 32 9
0 15 9 15 24 0 13 16 53 35 90 40 76 42 93 18 112 -27 20 -33 17 -50 -23z"/>
<path d="M3050 7176 c-27 -16 -48 -64 -49 -114 -1 -19 -10 -45 -20 -58 -19
-24 -20 -24 -26 -5 -3 11 1 36 10 56 19 47 20 105 1 105 -14 0 -76 -67 -76
-82 0 -5 6 -11 14 -14 10 -4 12 -16 9 -43 -3 -25 0 -48 11 -67 9 -16 27 -47
39 -68 12 -21 27 -38 32 -38 6 1 11 38 12 83 1 45 4 83 6 86 3 2 21 -26 42
-62 33 -60 58 -85 70 -73 7 6 -12 148 -20 156 -4 4 -12 -1 -19 -11 -16 -21
-26 -22 -26 -2 0 9 -7 18 -15 21 -24 10 -18 34 7 31 19 -2 25 5 34 43 11 43 9
70 -5 70 -3 -1 -17 -7 -31 -14z"/>
<path d="M3821 7068 l1 -43 13 35 c18 46 18 50 0 50 -11 0 -15 -11 -14 -42z"/>
<path d="M3177 7083 c-11 -10 -8 -62 4 -85 9 -17 13 -18 20 -7 16 25 8 99 -10
99 -4 0 -11 -3 -14 -7z"/>
<path d="M2849 6929 c-8 -17 -8 -31 0 -60 16 -52 31 -58 32 -15 3 86 2 96 -11
96 -5 0 -14 -10 -21 -21z"/>
<path d="M3779 6913 c-5 -14 -8 -32 -5 -40 8 -20 46 16 46 44 0 32 -28 29 -41
-4z"/>
<path d="M3727 6894 c-4 -4 -7 -20 -7 -35 0 -43 -10 -59 -36 -59 -19 0 -24 -5
-24 -26 0 -23 20 -54 34 -54 3 0 17 11 32 25 20 19 28 37 31 73 5 46 -14 92
-30 76z"/>
<path d="M3636 6864 c-3 -9 -6 -37 -5 -62 l1 -47 13 30 c16 34 20 95 6 95 -5
0 -12 -7 -15 -16z"/>
<path d="M3338 6800 c-64 -67 -69 -85 -38 -145 11 -22 20 -45 20 -53 0 -8 9
-12 22 -10 25 3 33 27 47 139 5 41 13 86 17 102 3 15 2 27 -2 27 -5 0 -35 -27
-66 -60z m12 -60 c0 -11 -7 -20 -15 -20 -15 0 -21 21 -8 33 12 13 23 7 23 -13z"/>
<path d="M3545 6830 c-25 -48 -15 -133 13 -105 7 6 12 135 6 135 -2 0 -10 -13
-19 -30z"/>
<path d="M3888 6853 c-11 -3 -18 -14 -18 -29 0 -14 4 -22 10 -19 6 3 10 11 10
17 0 6 8 17 18 24 17 13 12 15 -20 7z"/>
<path d="M8431 6744 c-7 -17 -8 -31 -2 -37 5 -5 12 3 16 23 4 17 5 33 3 36 -3
2 -10 -8 -17 -22z"/>
<path d="M3784 6731 c-10 -17 -24 -31 -30 -31 -20 0 -32 -105 -18 -157 12 -43
24 -12 24 58 0 65 1 70 19 64 17 -5 21 1 27 40 8 57 1 65 -22 26z"/>
<path d="M8322 6730 c0 -14 2 -19 5 -12 2 6 2 18 0 25 -3 6 -5 1 -5 -13z"/>
<path d="M3496 6708 c-5 -23 -3 -58 4 -90 20 -85 18 -82 35 -68 10 8 15 31 15
65 0 62 -7 85 -25 85 -8 0 -15 10 -17 23 -3 17 -6 14 -12 -15z"/>
<path d="M8202 6700 c0 -14 2 -19 5 -12 2 6 2 18 0 25 -3 6 -5 1 -5 -13z"/>
<path d="M3217 6637 c-37 -57 -58 -133 -40 -150 10 -11 55 72 63 114 9 50 -2
68 -23 36z"/>
<path d="M8393 6620 c0 -25 2 -35 4 -22 2 12 2 32 0 45 -2 12 -4 2 -4 -23z"/>
<path d="M3637 6644 c-4 -4 -7 -18 -7 -31 0 -18 7 -25 29 -29 22 -5 30 -13 35
-37 10 -49 30 -18 21 32 -6 38 -25 58 -25 29 -1 -7 -11 -1 -23 15 -13 15 -26
24 -30 21z"/>
<path d="M8550 6631 c0 -9 -4 -21 -9 -26 -4 -6 -11 -23 -15 -38 -8 -35 8 -28
29 13 10 19 20 27 30 24 26 -10 16 20 -10 33 -21 9 -25 9 -25 -6z"/>
<path d="M3407 6633 c-4 -3 -4 -22 -1 -43 4 -26 2 -40 -10 -49 -8 -7 -18 -28
-22 -47 -8 -44 -22 -52 -34 -19 -5 14 -14 23 -20 20 -27 -16 7 -172 39 -183
10 -3 12 1 9 16 -3 11 -2 26 3 33 6 11 13 9 32 -9 13 -12 26 -22 30 -22 13 0
7 97 -8 139 -14 40 -13 42 11 66 15 16 23 32 20 41 -3 9 -9 27 -12 40 -6 23
-23 31 -37 17z"/>
<path d="M3259 6576 c-9 -20 -10 -29 -1 -38 8 -8 14 -4 23 16 9 20 10 29 1 38
-8 8 -14 4 -23 -16z"/>
<path d="M8311 6575 c1 -19 18 -51 18 -35 0 8 -4 22 -9 30 -5 8 -9 11 -9 5z"/>
<path d="M8401 6534 c0 -11 3 -14 6 -6 3 7 2 16 -1 19 -3 4 -6 -2 -5 -13z"/>
<path d="M3170 6421 c0 -45 6 -50 26 -23 20 26 32 5 43 -72 12 -87 31 -111 31
-39 0 83 -12 173 -23 173 -6 0 -21 -10 -34 -22 -19 -18 -23 -19 -23 -5 0 9 -4
19 -10 22 -6 4 -10 -10 -10 -34z"/>
<path d="M8402 6420 c0 -14 2 -19 5 -12 2 6 2 18 0 25 -3 6 -5 1 -5 -13z"/>
<path d="M8269 6425 c-9 -18 -10 -181 0 -165 14 24 21 92 13 135 -4 22 -10 36
-13 30z"/>
<path d="M3692 6400 c0 -14 2 -19 5 -12 2 6 2 18 0 25 -3 6 -5 1 -5 -13z"/>
<path d="M3723 6353 c-18 -7 -16 -58 2 -73 13 -11 15 -6 15 34 0 25 -1 46 -2
45 -2 0 -9 -3 -15 -6z"/>
<path d="M8173 6324 c-7 -7 -13 -27 -13 -43 0 -16 -4 -32 -9 -35 -4 -3 -14
-26 -21 -51 -7 -25 -17 -48 -21 -51 -5 -3 -9 -17 -9 -31 0 -32 -21 -93 -32
-93 -4 0 -8 -10 -8 -22 0 -12 -7 -29 -15 -39 -11 -11 -14 -25 -9 -43 8 -32 28
-29 32 4 3 16 6 19 12 11 7 -12 29 24 54 89 4 8 15 29 25 45 11 17 20 38 20
47 1 9 11 24 23 32 19 13 20 16 5 16 -16 0 -17 9 -13 85 5 86 1 103 -21 79z"/>
<path d="M8392 6290 c0 -19 2 -27 5 -17 2 9 2 25 0 35 -3 9 -5 1 -5 -18z"/>
<path d="M8852 6140 c-8 -13 -8 -20 -2 -20 6 0 13 7 17 15 9 24 -1 27 -15 5z"/>
<path d="M8683 6139 c-16 -16 -17 -45 -3 -54 13 -8 23 17 18 45 -2 17 -5 19
-15 9z"/>
<path d="M8760 6095 c0 -8 2 -15 4 -15 2 0 6 7 10 15 3 8 1 15 -4 15 -6 0 -10
-7 -10 -15z"/>
<path d="M8817 6103 c-11 -10 -8 -43 3 -43 6 0 10 11 10 25 0 26 -2 29 -13 18z"/>
<path d="M3500 5986 c0 -7 8 -20 17 -27 15 -12 16 -12 10 4 -4 10 -7 23 -7 28
0 5 -4 9 -10 9 -5 0 -10 -6 -10 -14z"/>
<path d="M3255 5815 c3 -27 13 -75 22 -105 9 -30 17 -61 19 -67 2 -7 8 -13 14
-13 15 0 11 62 -5 84 -8 11 -15 34 -15 50 -1 17 -10 47 -21 66 l-19 35 5 -50z"/>
<path d="M8656 5664 c-4 -9 -4 -19 -1 -22 2 -3 7 3 11 12 4 9 4 19 1 22 -2 3
-7 -3 -11 -12z"/>
<path d="M8694 5594 c-4 -14 -2 -30 5 -37 8 -8 11 -1 11 26 0 43 -7 48 -16 11z"/>
<path d="M3670 5598 c0 -18 21 -58 31 -58 7 0 18 -8 26 -17 13 -16 14 -15 9
17 -6 35 -23 53 -39 43 -5 -3 -13 1 -18 8 -5 8 -9 11 -9 7z"/>
<path d="M8662 5575 c-14 -31 -15 -55 -3 -55 7 0 22 70 16 78 -1 1 -7 -9 -13
-23z"/>
<path d="M8623 5437 c-18 -39 -16 -55 3 -35 9 8 14 26 12 39 -3 23 -3 23 -15
-4z"/>
<path d="M8471 5294 c0 -11 3 -14 6 -6 3 7 2 16 -1 19 -3 4 -6 -2 -5 -13z"/>
<path d="M8420 5204 c0 -8 5 -12 10 -9 6 3 10 10 10 16 0 5 -4 9 -10 9 -5 0
-10 -7 -10 -16z"/>
<path d="M4362 4871 c2 -7 7 -12 11 -12 12 1 9 15 -3 20 -7 2 -11 -2 -8 -8z"/>
<path d="M7972 4461 c-12 -10 -22 -23 -22 -29 0 -6 -8 -15 -17 -21 -20 -11
-22 -9 34 -38 l43 -22 15 22 c8 12 15 41 15 64 0 38 -3 43 -23 43 -13 0 -34
-8 -45 -19z"/>
<path d="M7814 4399 c12 -8 25 -8 40 -1 18 9 16 11 -19 11 -33 0 -37 -1 -21
-10z"/>
<path d="M7768 4325 c-37 -25 -38 -25 -18 -45 19 -19 22 -19 57 -5 26 11 39
12 43 4 5 -7 17 -2 35 15 29 27 27 33 -6 16 -12 -7 -19 -7 -19 -1 0 13 -29 41
-43 41 -7 0 -29 -11 -49 -25z"/>
<path d="M7905 4280 c-3 -5 -1 -10 4 -10 6 0 11 5 11 10 0 6 -2 10 -4 10 -3 0
-8 -4 -11 -10z"/>
<path d="M5340 4165 c0 -9 5 -15 11 -13 6 2 11 8 11 13 0 5 -5 11 -11 13 -6 2
-11 -4 -11 -13z"/>
<path d="M7273 4094 c7 -8 -25 -39 -60 -58 -15 -9 -41 -27 -57 -40 -27 -22
-28 -26 -13 -40 9 -10 42 -19 79 -23 35 -3 66 -10 69 -16 4 -5 17 -6 29 -2 15
5 19 10 11 18 -7 7 -7 16 0 29 13 23 4 37 -13 20 -16 -16 -51 -15 -46 1 7 19
58 34 67 19 6 -10 13 -11 34 -1 26 12 36 28 20 30 -71 9 -110 4 -128 -16 -26
-28 -55 -39 -55 -21 0 8 14 20 30 28 17 7 30 19 30 25 0 7 9 13 20 13 18 0 19
3 10 20 -6 11 -16 20 -22 20 -6 0 -9 -3 -5 -6z"/>
<path d="M7345 4070 c-3 -5 3 -10 14 -10 12 0 21 5 21 10 0 6 -6 10 -14 10 -8
0 -18 -4 -21 -10z"/>
<path d="M7160 4050 c0 -13 11 -13 30 0 12 8 11 10 -7 10 -13 0 -23 -4 -23
-10z"/>
<path d="M7505 4050 c-3 -5 -1 -10 4 -10 6 0 11 5 11 10 0 6 -2 10 -4 10 -3 0
-8 -4 -11 -10z"/>
<path d="M5675 3980 c3 -5 -1 -10 -11 -10 -13 0 -14 -3 -4 -15 15 -19 34 -19
49 -2 8 10 7 17 -1 25 -15 15 -42 16 -33 2z"/>
<path d="M5940 3959 c0 -6 -9 -8 -21 -4 -31 10 -69 -2 -63 -20 4 -10 20 -15
50 -15 40 0 44 2 44 25 0 14 -2 25 -5 25 -3 0 -5 -5 -5 -11z"/>
<path d="M5322 3936 c4 -20 0 -25 -26 -30 -26 -6 -28 -8 -15 -21 22 -22 64
-24 63 -2 -2 21 10 22 41 1 24 -16 25 -16 25 10 0 26 0 26 31 11 42 -22 49
-11 8 14 -21 13 -36 17 -40 10 -4 -7 -18 -3 -40 10 -44 27 -52 26 -47 -3z"/>
<path d="M5613 3916 c9 -7 17 -23 17 -36 0 -13 7 -24 18 -27 20 -5 47 -41 38
-51 -3 -3 -17 0 -31 6 -42 19 -64 15 -31 -6 34 -20 96 -18 96 4 0 8 -9 22 -20
31 -14 12 -16 20 -9 29 14 16 3 34 -20 34 -9 0 -26 7 -37 15 -10 8 -23 14 -29
14 -5 0 -2 -6 8 -13z"/>
<path d="M5818 3863 c7 -3 16 -2 19 1 4 3 -2 6 -13 5 -11 0 -14 -3 -6 -6z"/>
<path d="M5525 3830 c3 -5 10 -10 16 -10 5 0 9 5 9 10 0 6 -7 10 -16 10 -8 0
-12 -4 -9 -10z"/>
<path d="M5970 3776 c0 -10 9 -16 21 -16 24 0 21 23 -4 28 -10 2 -17 -3 -17
-12z"/>
<path d="M6070 3776 c0 -9 7 -16 16 -16 9 0 14 5 12 12 -6 18 -28 21 -28 4z"/>
<path d="M5750 3770 c0 -5 9 -10 20 -10 11 0 20 5 20 10 0 6 -9 10 -20 10 -11
0 -20 -4 -20 -10z"/>
<path d="M5690 3750 c0 -5 7 -10 16 -10 8 0 12 5 9 10 -3 6 -10 10 -16 10 -5
0 -9 -4 -9 -10z"/>
<path d="M6140 3750 c0 -5 16 -10 36 -10 21 0 33 4 29 10 -3 6 -19 10 -36 10
-16 0 -29 -4 -29 -10z"/>
<path d="M5530 3729 c0 -6 9 -13 20 -16 11 -3 20 -9 20 -14 0 -12 -37 -11 -45
1 -3 6 -14 10 -23 10 -12 0 -7 -9 18 -30 28 -23 45 -30 83 -30 26 0 47 4 47 9
0 5 -15 25 -33 45 -33 35 -87 51 -87 25z"/>
<path d="M5740 3685 c11 -13 7 -15 -27 -15 -22 0 -43 -3 -46 -7 -9 -8 53 -53
74 -53 28 0 49 -11 49 -26 0 -20 -30 -17 -55 6 -16 15 -39 20 -106 23 -121 7
-141 -11 -59 -53 50 -26 53 -25 46 5 -7 29 -10 28 74 10 35 -7 69 -20 75 -28
13 -18 85 -34 85 -19 0 5 -7 15 -15 22 -8 7 -15 19 -15 26 0 8 -9 22 -20 31
-28 24 -25 34 6 23 14 -6 30 -7 36 -4 13 8 -29 33 -56 34 -11 0 -16 3 -13 7
10 9 -13 33 -30 33 -13 0 -13 -3 -3 -15z"/>
<path d="M5950 3680 c0 -5 11 -10 25 -10 14 0 25 5 25 10 0 6 -11 10 -25 10
-14 0 -25 -4 -25 -10z"/>
<path d="M6634 3616 c-51 -23 -51 -36 0 -36 25 0 46 4 46 9 0 5 3 16 6 25 8
20 -10 20 -52 2z"/>
<path d="M6741 3596 c-11 -28 -24 -33 -93 -41 -29 -4 -64 -9 -78 -12 -21 -5
-19 -7 19 -14 33 -6 53 -5 74 6 40 20 42 19 56 -11 10 -22 14 -24 27 -13 12
10 12 14 2 21 -11 6 -10 10 1 17 15 10 24 71 10 71 -5 0 -14 -11 -18 -24z"/>
<path d="M6905 3598 c-2 -7 -5 -26 -7 -43 -3 -26 -8 -30 -35 -33 -31 -3 -48
-22 -20 -22 7 0 21 -6 31 -13 16 -12 14 -15 -26 -42 -23 -17 -47 -36 -51 -42
-4 -7 -27 -13 -50 -13 -48 0 -73 -12 -62 -29 9 -15 61 -5 95 19 37 26 90 30
90 7 0 -23 35 -35 88 -29 46 4 50 6 41 23 -10 20 -69 27 -69 9 0 -5 -4 -10
-10 -10 -5 0 -10 8 -10 18 0 22 61 56 87 48 11 -4 31 -2 44 3 22 8 22 10 6 16
-10 4 -42 5 -70 2 -70 -9 -88 4 -49 32 17 11 33 21 37 21 4 0 18 9 32 20 25
19 25 20 4 20 -16 0 -21 6 -21 25 0 22 -4 25 -35 25 -20 0 -38 -6 -40 -12z"/>
<path d="M6463 3524 c0 -22 3 -25 30 -22 39 4 45 21 12 36 -37 17 -42 15 -42
-14z"/>
<path d="M5688 3523 c7 -3 16 -2 19 1 4 3 -2 6 -13 5 -11 0 -14 -3 -6 -6z"/>
<path d="M6215 3520 c3 -5 14 -10 23 -10 15 0 15 2 2 10 -20 13 -33 13 -25 0z"/>
<path d="M5970 3490 c0 -20 48 -34 76 -22 14 7 22 17 19 22 -8 13 -95 13 -95
0z"/>
<path d="M6251 3492 c-10 -3 -7 -8 10 -18 l24 -13 -26 -1 c-39 0 -89 -29 -89
-50 0 -10 7 -26 16 -34 17 -17 54 -22 54 -7 0 13 27 21 45 15 23 -9 18 -24 -9
-24 -14 0 -37 -5 -53 -11 l-28 -11 44 -19 c50 -22 72 -19 86 13 7 15 17 22 30
20 56 -10 107 -13 122 -8 28 11 -4 31 -50 31 -36 0 -42 3 -45 23 -4 24 -30 29
-63 11 -22 -11 -79 -3 -79 12 0 5 17 9 38 9 28 1 41 7 55 25 17 24 13 31 -15
26 -4 0 -18 3 -30 8 -13 4 -29 6 -37 3z"/>
<path d="M5698 3483 c7 -3 16 -2 19 1 4 3 -2 6 -13 5 -11 0 -14 -3 -6 -6z"/>
<path d="M6405 3480 c-3 -5 1 -10 9 -10 8 0 18 5 21 10 3 6 -1 10 -9 10 -8 0
-18 -4 -21 -10z"/>
<path d="M6457 3453 c-17 -16 -4 -24 35 -21 55 4 64 28 11 28 -22 0 -43 -3
-46 -7z"/>
<path d="M6383 3313 c-22 -8 -14 -23 11 -23 31 0 56 10 56 21 0 9 -46 11 -67
2z"/>
<path d="M6192 3278 c-7 -7 -12 -18 -12 -25 0 -7 -4 -13 -10 -13 -5 0 -10 -4
-10 -10 0 -5 18 -10 40 -10 25 0 40 5 40 13 0 6 3 22 6 35 5 18 2 22 -18 22
-13 0 -29 -5 -36 -12z"/>
<path d="M6300 3251 c0 -5 9 -13 20 -16 25 -8 26 -22 3 -28 -10 -3 -4 -5 13
-6 21 -1 34 5 38 15 13 35 7 44 -34 44 -22 0 -40 -4 -40 -9z"/>
</g>
</svg>
